# xmcd CD database file
#
# Track frame offsets:
#	150
#	11823
#	27111
#	43520
#	61432
#	75571
#	92670
#	102838
#	121353
#	143298
#
# Disc length: 2068 seconds
#
# Revision: 5
# Processed by: cddbd v1.5.2PL0 Copyright (c) Steve Scherf et al.
# Submitted via: CDex 1.51
#
DISCID=7208120a
DTITLE=Steve Earle - Guitar Town - 30th Anniversary
DYEAR=2016
DGENRE=Country
TTITLE0=Guitar Town
TTITLE1=Goodbye's All We've Got Left
TTITLE2=Hillbilly Highway
TTITLE3=Good Ol' Boy (Gettin' Tough)
TTITLE4=My Old Friend The Blues
TTITLE5=Someday
TTITLE6=Think It Over
TTITLE7=Fearless Heart
TTITLE8=Little Rock 'N' Roller
TTITLE9=Down The Road
EXTD=YEAR: 2016
EXTT0=
EXTT1=
EXTT2=
EXTT3=
EXTT4=
EXTT5=
EXTT6=
EXTT7=
EXTT8=
EXTT9=
PLAYORDER=
